<svg width="50" height="50" viewBox="0 0 50 50" fill="none" xmlns="http://www.w3.org/2000/svg">
<g opacity="0.9" clip-path="url(#clip0_608_2)">
<path d="M34.2746 15.7248C34.0422 15.4905 33.7657 15.3045 33.461 15.1776C33.1564 15.0507 32.8296 14.9853 32.4996 14.9853C32.1696 14.9853 31.8428 15.0507 31.5381 15.1776C31.2335 15.3045 30.957 15.4905 30.7246 15.7248L24.9996 21.4748L19.2746 15.7248C18.8038 15.2541 18.1653 14.9896 17.4996 14.9896C16.8338 14.9896 16.1953 15.2541 15.7246 15.7248C15.2538 16.1956 14.9894 16.8341 14.9894 17.4998C14.9894 18.1656 15.2538 18.8041 15.7246 19.2748L21.4746 24.9998L15.7246 30.7248C15.4903 30.9572 15.3043 31.2337 15.1774 31.5384C15.0504 31.843 14.9851 32.1698 14.9851 32.4998C14.9851 32.8299 15.0504 33.1566 15.1774 33.4613C15.3043 33.7659 15.4903 34.0424 15.7246 34.2748C15.957 34.5092 16.2335 34.6951 16.5381 34.8221C16.8428 34.949 17.1696 35.0143 17.4996 35.0143C17.8296 35.0143 18.1564 34.949 18.461 34.8221C18.7657 34.6951 19.0422 34.5092 19.2746 34.2748L24.9996 28.5248L30.7246 34.2748C30.957 34.5092 31.2335 34.6951 31.5381 34.8221C31.8428 34.949 32.1696 35.0143 32.4996 35.0143C32.8296 35.0143 33.1564 34.949 33.461 34.8221C33.7657 34.6951 34.0422 34.5092 34.2746 34.2748C34.5089 34.0424 34.6949 33.7659 34.8218 33.4613C34.9487 33.1566 35.0141 32.8299 35.0141 32.4998C35.0141 32.1698 34.9487 31.843 34.8218 31.5384C34.6949 31.2337 34.5089 30.9572 34.2746 30.7248L28.5246 24.9998L34.2746 19.2748C34.5089 19.0424 34.6949 18.7659 34.8218 18.4613C34.9487 18.1566 35.0141 17.8299 35.0141 17.4998C35.0141 17.1698 34.9487 16.843 34.8218 16.5384C34.6949 16.2337 34.5089 15.9572 34.2746 15.7248ZM42.6746 7.32483C40.3684 4.93708 37.6098 3.03252 34.5597 1.7223C31.5096 0.412072 28.2291 -0.277584 24.9096 -0.306429C21.5901 -0.335275 18.2981 0.297268 15.2257 1.55429C12.1533 2.81131 9.36203 4.66764 7.01471 7.01496C4.6674 9.36228 2.81107 12.1536 1.55405 15.226C0.297024 18.2984 -0.335519 21.5904 -0.306673 24.9099C-0.277828 28.2293 0.411828 31.5098 1.72205 34.5599C3.03228 37.61 4.93683 40.3687 7.32459 42.6748C9.63076 45.0626 12.3894 46.9671 15.4395 48.2774C18.4896 49.5876 21.7701 50.2773 25.0896 50.3061C28.409 50.3349 31.701 49.7024 34.7734 48.4454C37.8458 47.1884 40.6371 45.332 42.9845 42.9847C45.3318 40.6374 47.1881 37.8461 48.4451 34.7737C49.7022 31.7013 50.3347 28.4093 50.3059 25.0898C50.277 21.7703 49.5874 18.4898 48.2771 15.4397C46.9669 12.3896 45.0623 9.631 42.6746 7.32483ZM39.1496 39.1498C35.8797 42.4234 31.5759 44.4619 26.9716 44.9181C22.3672 45.3743 17.7471 44.22 13.8984 41.6518C10.0497 39.0836 7.21048 35.2604 5.86452 30.8335C4.51856 26.4067 4.7491 21.6502 6.51687 17.3743C8.28464 13.0984 11.4803 9.5677 15.5593 7.38374C19.6384 5.19977 24.3484 4.49766 28.8871 5.39701C33.4258 6.29637 37.5122 8.74156 40.4502 12.316C43.3882 15.8904 44.996 20.3729 44.9996 24.9998C45.0085 27.6281 44.4961 30.2319 43.4919 32.6608C42.4878 35.0896 41.0118 37.2952 39.1496 39.1498Z" fill="black"/>
</g>
<defs>
<clipPath id="clip0_608_2">
<rect width="50" height="50" fill="white"/>
</clipPath>
</defs>
</svg>
