<svg width="40" height="50" viewBox="0 0 40 50" fill="none" xmlns="http://www.w3.org/2000/svg">
<g clip-path="url(#clip0_614_2)">
<path d="M0 25C0 25.663 0.263393 26.2989 0.732234 26.7678C1.20107 27.2366 1.83696 27.5 2.5 27.5H21.475L15.725 33.225C15.4907 33.4574 15.3047 33.7339 15.1778 34.0386C15.0509 34.3432 14.9855 34.67 14.9855 35C14.9855 35.33 15.0509 35.6568 15.1778 35.9614C15.3047 36.2661 15.4907 36.5426 15.725 36.775C15.9574 37.0093 16.2339 37.1953 16.5386 37.3222C16.8432 37.4492 17.17 37.5145 17.5 37.5145C17.83 37.5145 18.1568 37.4492 18.4614 37.3222C18.7661 37.1953 19.0426 37.0093 19.275 36.775L29.275 26.775C29.5026 26.5372 29.681 26.2569 29.8 25.95C30.05 25.3413 30.05 24.6587 29.8 24.05C29.681 23.7431 29.5026 23.4628 29.275 23.225L19.275 13.225C19.0419 12.9919 18.7652 12.807 18.4606 12.6809C18.1561 12.5547 17.8296 12.4898 17.5 12.4898C17.1704 12.4898 16.8439 12.5547 16.5394 12.6809C16.2348 12.807 15.9581 12.9919 15.725 13.225C15.4919 13.4581 15.307 13.7348 15.1809 14.0394C15.0547 14.3439 14.9898 14.6704 14.9898 15C14.9898 15.3296 15.0547 15.6561 15.1809 15.9606C15.307 16.2652 15.4919 16.5419 15.725 16.775L21.475 22.5H2.5C1.83696 22.5 1.20107 22.7634 0.732234 23.2322C0.263393 23.7011 0 24.337 0 25ZM32.5 0H7.5C5.51088 0 3.60322 0.790177 2.1967 2.1967C0.790177 3.60322 0 5.51088 0 7.5V15C0 15.663 0.263393 16.2989 0.732234 16.7678C1.20107 17.2366 1.83696 17.5 2.5 17.5C3.16304 17.5 3.79893 17.2366 4.26777 16.7678C4.73661 16.2989 5 15.663 5 15V7.5C5 6.83696 5.26339 6.20107 5.73223 5.73223C6.20107 5.26339 6.83696 5 7.5 5H32.5C33.163 5 33.7989 5.26339 34.2678 5.73223C34.7366 6.20107 35 6.83696 35 7.5V42.5C35 43.163 34.7366 43.7989 34.2678 44.2678C33.7989 44.7366 33.163 45 32.5 45H7.5C6.83696 45 6.20107 44.7366 5.73223 44.2678C5.26339 43.7989 5 43.163 5 42.5V35C5 34.337 4.73661 33.7011 4.26777 33.2322C3.79893 32.7634 3.16304 32.5 2.5 32.5C1.83696 32.5 1.20107 32.7634 0.732234 33.2322C0.263393 33.7011 0 34.337 0 35V42.5C0 44.4891 0.790177 46.3968 2.1967 47.8033C3.60322 49.2098 5.51088 50 7.5 50H32.5C34.4891 50 36.3968 49.2098 37.8033 47.8033C39.2098 46.3968 40 44.4891 40 42.5V7.5C40 5.51088 39.2098 3.60322 37.8033 2.1967C36.3968 0.790177 34.4891 0 32.5 0Z" fill="white"/>
</g>
<defs>
<clipPath id="clip0_614_2">
<rect width="40" height="50" fill="white"/>
</clipPath>
</defs>
</svg>
