<svg width="29" height="29" viewBox="0 0 29 29" fill="none" xmlns="http://www.w3.org/2000/svg">
<g clip-path="url(#clip0_556_2)">
<path d="M26.8031 12.7422H16.2576V2.19678C16.2576 1.73065 16.0725 1.2836 15.7429 0.953991C15.4132 0.624382 14.9662 0.439209 14.5001 0.439209C14.0339 0.439209 13.5869 0.624382 13.2573 0.953991C12.9277 1.2836 12.7425 1.73065 12.7425 2.19678V12.7422H2.19703C1.73089 12.7422 1.28384 12.9274 0.954235 13.257C0.624626 13.5866 0.439453 14.0337 0.439453 14.4998C0.439453 14.966 0.624626 15.413 0.954235 15.7426C1.28384 16.0722 1.73089 16.2574 2.19703 16.2574H12.7425V26.8028C12.7425 27.269 12.9277 27.716 13.2573 28.0456C13.5869 28.3752 14.0339 28.5604 14.5001 28.5604C14.9662 28.5604 15.4132 28.3752 15.7429 28.0456C16.0725 27.716 16.2576 27.269 16.2576 26.8028V16.2574H26.8031C27.2692 16.2574 27.7163 16.0722 28.0459 15.7426C28.3755 15.413 28.5607 14.966 28.5607 14.4998C28.5607 14.0337 28.3755 13.5866 28.0459 13.257C27.7163 12.9274 27.2692 12.7422 26.8031 12.7422Z" fill="black"/>
</g>
<defs>
<clipPath id="clip0_556_2">
<rect width="29" height="29" fill="white"/>
</clipPath>
</defs>
</svg>
